<?xml version="1.0" encoding="UTF-8"?>
<svg id="Layer_1" xmlns="http://www.w3.org/2000/svg" version="1.1" viewBox="0 0 42 42">
  <!-- Generator: Adobe Illustrator 30.0.0, SVG Export Plug-In . SVG Version: 2.1.1 Build 123)  -->
  <defs>
    <style>
      .st0 {
        fill: #eee;
      }
    </style>
  </defs>
  <path class="st0" d="M15.2,21.5h4.5c-.7-2.5-1.6-5-2.2-7.5-.7,2.5-1.5,5-2.2,7.5Z"/>
  <path class="st0" d="M33.8.2H8.2C3.8.2.2,3.8.2,8.2v25.6c0,4.4,3.6,8,8,8h25.6c4.4,0,8-3.6,8-8V8.2C41.8,3.8,38.2.2,33.8.2ZM26.1,29.6h-3.7c-.1,0-.3,0-.3-.2l-1.4-4.3h-6.5l-1.3,4.2c0,.2-.2.3-.3.3h-3.3c-.2,0-.3-.1-.2-.3l5.6-16.6c0-.2.1-.4.2-.6,0-.4.1-.8.1-1.2,0-.1,0-.2.2-.2h4.5c.1,0,.2,0,.2.1l6.4,18.5c0,.2,0,.3-.2.3ZM32,29.3c0,.2,0,.3-.2.3h-3.4c-.2,0-.3,0-.3-.3v-13.8c0-.2,0-.3.2-.3h3.5c.2,0,.2,0,.2.3v13.8ZM32.1,12.3c-.1.3-.3.5-.5.8-.2.2-.5.4-.7.5-.3.1-.6.2-.9.1-.3,0-.6,0-.8-.1-.3-.1-.5-.3-.7-.5-.2-.2-.4-.5-.5-.8-.1-.3-.1-.6-.1-.9,0-.3,0-.6.2-.9.1-.3.3-.5.5-.7.2-.2.5-.4.7-.5.3-.1.6-.2.8-.2.7,0,1.2.2,1.6.6.2.2.3.5.4.7,0,.3.1.6.1.9,0,.3,0,.6-.1.9Z"/>
</svg>